<svg width="175" height="30" viewBox="0 0 175 30" fill="none" xmlns="http://www.w3.org/2000/svg">
<path fill-rule="evenodd" clip-rule="evenodd" d="M28.125 20.4724L14.0362 20.4724C10.9331 20.4724 8.41751 17.9302 8.41751 14.7942C8.41751 11.6656 10.9389 9.11605 14.0493 9.11605C17.1742 9.11605 19.7073 11.6775 19.7073 14.8207L19.7073 20.4724L28.125 20.4724L28.1248 14.8207C28.1248 6.96467 21.8084 0.609438 14.0493 0.609439C6.30458 0.609439 -2.25835e-06 6.95282 -1.91854e-06 14.7942C-1.57906e-06 22.6283 6.28422 28.979 14.0362 28.979L28.125 28.979L28.125 20.4724Z" fill="#33CAAF"/>
<path d="M172.526 19.2404C172.068 18.9075 171.536 18.6301 170.931 18.4082C170.326 18.1678 169.785 18.0476 169.309 18.0476C168.924 18.0476 168.63 18.1123 168.429 18.2417C168.227 18.3712 168.126 18.5376 168.126 18.741C168.126 18.9999 168.273 19.2311 168.566 19.4345C168.859 19.6195 169.299 19.8136 169.886 20.017C171.774 20.6458 173.094 21.33 173.846 22.0697C174.598 22.791 174.974 23.7248 174.974 24.8714C174.974 25.6296 174.717 26.3601 174.204 27.0628C173.69 27.747 172.966 28.311 172.031 28.7549C171.096 29.1802 170.024 29.3929 168.814 29.3929C167.677 29.3929 166.586 29.1987 165.541 28.8104C164.496 28.4035 163.607 27.8302 162.874 27.0905L165.376 24.5385C165.798 24.9454 166.339 25.2782 166.999 25.5371C167.659 25.796 168.236 25.9255 168.731 25.9255C169.556 25.9255 169.969 25.6573 169.969 25.121C169.969 24.8806 169.804 24.6772 169.474 24.5108C169.162 24.3259 168.713 24.1224 168.126 23.9005C166.531 23.2903 165.358 22.606 164.606 21.8478C163.873 21.0896 163.506 20.1742 163.506 19.1017C163.506 18.325 163.744 17.6037 164.221 16.938C164.716 16.2723 165.404 15.736 166.284 15.3291C167.182 14.9223 168.209 14.7189 169.364 14.7189C170.482 14.7189 171.527 14.8946 172.499 15.2459C173.489 15.5973 174.314 16.1058 174.974 16.7716L172.526 19.2404Z" fill="#394759"/>
<path d="M151.632 16.5497C152.146 15.9949 152.741 15.5695 153.42 15.2737C154.116 14.9778 154.886 14.8298 155.73 14.8298C157.746 14.8298 159.25 15.5973 160.24 17.1322C160.588 17.687 160.817 18.2972 160.927 18.963C161.056 19.6102 161.12 20.4239 161.12 21.404V28.9768H156.802V21.3485C156.802 20.4609 156.601 19.8044 156.197 19.3791C155.812 18.9537 155.207 18.7411 154.382 18.7411C153.594 18.7411 152.989 18.9537 152.567 19.3791C152.146 19.8044 151.935 20.3684 151.935 21.0711V28.9768H147.562V15.135H151.55L151.632 16.5497Z" fill="#394759"/>
<path d="M136.634 29.1987C135.479 29.1987 134.398 28.8936 133.389 28.2833C132.399 27.6731 131.611 26.8224 131.024 25.7313C130.438 24.6403 130.144 23.4105 130.144 22.042C130.144 20.6736 130.438 19.4531 131.024 18.3805C131.611 17.2894 132.399 16.4387 133.389 15.8285C134.398 15.2182 135.479 14.9131 136.634 14.9131C138.394 14.9131 139.751 15.3939 140.704 16.3555L140.814 15.135H144.747V28.9768H140.814L140.704 27.7286C139.751 28.7087 138.394 29.1987 136.634 29.1987ZM137.789 25.3985C138.651 25.3985 139.339 25.0933 139.852 24.4831C140.365 23.8728 140.622 23.0591 140.622 22.042C140.622 21.0434 140.365 20.239 139.852 19.6287C139.339 19.0185 138.651 18.7133 137.789 18.7133C137.001 18.7133 136.323 19.0277 135.754 19.6565C135.186 20.2852 134.902 21.0804 134.902 22.042C134.902 23.0037 135.177 23.8081 135.727 24.4553C136.295 25.0841 136.983 25.3985 137.789 25.3985Z" fill="#394759"/>
<path d="M127.914 29.0877C125.842 29.0877 124.302 28.6346 123.294 27.7285C122.285 26.8223 121.781 25.3521 121.781 23.3179V8.17236H126.098V22.9851C126.098 23.9282 126.337 24.5754 126.814 24.9268C127.309 25.2597 128.079 25.4261 129.124 25.4261V29.0877H127.914Z" fill="#394759"/>
<path d="M110.853 29.1987C109.698 29.1987 108.616 28.8936 107.608 28.2833C106.618 27.6731 105.83 26.8224 105.243 25.7313C104.656 24.6403 104.363 23.4105 104.363 22.042C104.363 20.6736 104.656 19.4531 105.243 18.3805C105.83 17.2894 106.618 16.4387 107.608 15.8285C108.616 15.2182 109.698 14.9131 110.853 14.9131C112.613 14.9131 113.97 15.3939 114.923 16.3555L115.033 15.135H118.966V28.9768H115.033L114.923 27.7286C113.97 28.7087 112.613 29.1987 110.853 29.1987ZM112.008 25.3985C112.87 25.3985 113.557 25.0933 114.071 24.4831C114.584 23.8728 114.841 23.0591 114.841 22.042C114.841 21.0434 114.584 20.239 114.071 19.6287C113.557 19.0185 112.87 18.7133 112.008 18.7133C111.22 18.7133 110.541 19.0277 109.973 19.6565C109.405 20.2852 109.121 21.0804 109.121 22.042C109.121 23.0037 109.396 23.8081 109.946 24.4553C110.514 25.0841 111.201 25.3985 112.008 25.3985Z" fill="#394759"/>
<path d="M92.5829 16.2722C93.4995 15.366 94.7645 14.913 96.3779 14.913C97.5329 14.913 98.6054 15.2181 99.5954 15.8284C100.604 16.4386 101.401 17.2893 101.988 18.3804C102.575 19.4714 102.868 20.7012 102.868 22.0697C102.868 23.4381 102.575 24.6679 101.988 25.759C101.401 26.8316 100.604 27.673 99.5954 28.2832C98.6054 28.8935 97.5329 29.1986 96.3779 29.1986C94.6179 29.1986 93.2612 28.7178 92.3079 27.7562L92.1979 28.9767H88.2654V8.86584H92.5829V16.2722ZM95.2229 18.7132C94.3612 18.7132 93.6737 19.0184 93.1604 19.6286C92.647 20.2389 92.3904 21.0526 92.3904 22.0697C92.3904 23.0683 92.647 23.8727 93.1604 24.483C93.6737 25.0932 94.3612 25.3984 95.2229 25.3984C96.0295 25.3984 96.7079 25.084 97.2579 24.4552C97.8262 23.8265 98.1104 23.0313 98.1104 22.0697C98.1104 21.108 97.8262 20.3129 97.2579 19.6841C96.7079 19.0369 96.0295 18.7132 95.2229 18.7132Z" fill="#394759"/>
<path d="M83.8761 19.2404C83.4178 18.9075 82.8861 18.6301 82.2811 18.4082C81.6761 18.1678 81.1353 18.0476 80.6586 18.0476C80.2736 18.0476 79.9803 18.1123 79.7786 18.2417C79.577 18.3712 79.4761 18.5376 79.4761 18.741C79.4761 18.9999 79.6228 19.2311 79.9161 19.4345C80.2095 19.6195 80.6495 19.8136 81.2361 20.017C83.1245 20.6458 84.4445 21.33 85.1961 22.0697C85.9478 22.791 86.3236 23.7248 86.3236 24.8714C86.3236 25.6296 86.067 26.3601 85.5536 27.0628C85.0403 27.747 84.3161 28.311 83.3811 28.7549C82.4461 29.1802 81.3736 29.3929 80.1636 29.3929C79.027 29.3929 77.9361 29.1987 76.8911 28.8104C75.8461 28.4035 74.957 27.8302 74.2236 27.0905L76.7261 24.5385C77.1478 24.9454 77.6886 25.2782 78.3486 25.5371C79.0086 25.796 79.5861 25.9255 80.0811 25.9255C80.9061 25.9255 81.3186 25.6573 81.3186 25.121C81.3186 24.8806 81.1536 24.6772 80.8236 24.5108C80.512 24.3259 80.0628 24.1224 79.4761 23.9005C77.8811 23.2903 76.7078 22.606 75.9561 21.8478C75.2228 21.0896 74.8561 20.1742 74.8561 19.1017C74.8561 18.325 75.0945 17.6037 75.5711 16.938C76.0661 16.2723 76.7536 15.736 77.6336 15.3291C78.532 14.9223 79.5586 14.7189 80.7136 14.7189C81.832 14.7189 82.877 14.8946 83.8486 15.2459C84.8386 15.5973 85.6636 16.1058 86.3236 16.7716L83.8761 19.2404Z" fill="#33CAAF"/>
<path d="M69.9946 13.2764C69.3162 13.2764 68.7479 13.0452 68.2896 12.5829C67.8312 12.1021 67.6021 11.5196 67.6021 10.8353C67.6021 10.1696 67.8312 9.59632 68.2896 9.11551C68.7479 8.63469 69.3162 8.39429 69.9946 8.39429C70.6729 8.39429 71.2412 8.63469 71.6996 9.11551C72.1762 9.59632 72.4146 10.1696 72.4146 10.8353C72.4146 11.5196 72.1762 12.1021 71.6996 12.5829C71.2412 13.0452 70.6729 13.2764 69.9946 13.2764ZM65.8146 15.1349H72.3596V28.9767H67.9871V18.5468H65.8146V15.1349Z" fill="#33CAAF"/>
<path d="M57.7275 29.3097C56.2241 29.3097 54.9133 29.0138 53.795 28.422C52.6766 27.8302 51.815 26.9981 51.21 25.9255C50.6233 24.8344 50.33 23.5677 50.33 22.1252C50.33 20.6458 50.6233 19.3606 51.21 18.2695C51.7966 17.1784 52.6308 16.337 53.7125 15.7452C54.8125 15.135 56.1141 14.8298 57.6175 14.8298C59.4691 14.8298 60.9908 15.3014 62.1825 16.2445C63.3925 17.1877 64.19 18.4359 64.575 19.9893C64.7216 20.6366 64.795 21.4687 64.795 22.4858L64.7675 23.4012H54.8675C54.9408 24.0855 55.2341 24.6587 55.7475 25.1211C56.2791 25.5649 56.9575 25.7868 57.7825 25.7868C59.1575 25.7868 60.1475 25.2505 60.7525 24.1779L64.685 25.4262C64.1166 26.6467 63.2275 27.5991 62.0175 28.2833C60.8075 28.9675 59.3775 29.3097 57.7275 29.3097ZM60.23 20.4609C60.1566 19.7212 59.8816 19.1479 59.405 18.7411C58.9466 18.3157 58.3416 18.1031 57.59 18.1031C56.8566 18.1031 56.2333 18.325 55.72 18.7688C55.225 19.1941 54.9683 19.7582 54.95 20.4609H60.23Z" fill="#33CAAF"/>
<path d="M41.21 21.7645H39.56V28.9767H35.05V9.55933H41.21C42.42 9.55933 43.4925 9.65179 44.4275 9.83672C45.7842 10.1511 46.8934 10.8076 47.755 11.8062C48.6351 12.7863 49.0751 14.0623 49.0751 15.6342C49.0751 16.8917 48.745 17.992 48.085 18.9352C47.425 19.8783 46.5725 20.5718 45.5276 21.0156L49.7625 28.9767H44.95L41.21 21.7645ZM41.6775 17.8533C42.2642 17.8533 42.6584 17.8256 42.86 17.7701C43.3734 17.6592 43.7675 17.428 44.0425 17.0766C44.3175 16.7068 44.4551 16.2352 44.4551 15.6619C44.4551 15.0887 44.29 14.6448 43.96 14.3305C43.6484 13.9976 43.2542 13.7757 42.7775 13.6647C42.4475 13.5907 42.09 13.5538 41.705 13.5538H39.56V17.8533H41.6775Z" fill="#33CAAF"/>
</svg>
