<svg width="175" height="29" viewBox="0 0 175 29" fill="none" xmlns="http://www.w3.org/2000/svg">
<path fill-rule="evenodd" clip-rule="evenodd" d="M28.125 19.9719L14.0362 19.9719C10.9331 19.9719 8.41751 17.4297 8.41751 14.2937C8.41751 11.1651 10.9389 8.61556 14.0493 8.61556C17.1742 8.61556 19.7073 11.177 19.7073 14.3202L19.7073 19.9719L28.125 19.9719L28.1248 14.3202C28.1248 6.46418 21.8084 0.108951 14.0493 0.108951C6.30459 0.108951 7.21885e-07 6.45233 1.06169e-06 14.2937C1.40117e-06 22.1278 6.28422 28.4785 14.0362 28.4785L28.125 28.4785L28.125 19.9719Z" fill="#33CAAF"/>
<path d="M172.526 18.7402C172.068 18.4074 171.536 18.13 170.931 17.9081C170.326 17.6676 169.785 17.5474 169.309 17.5474C168.924 17.5474 168.63 17.6122 168.429 17.7416C168.227 17.8711 168.126 18.0375 168.126 18.2409C168.126 18.4998 168.273 18.731 168.566 18.9344C168.859 19.1193 169.299 19.3135 169.886 19.5169C171.774 20.1457 173.094 20.8299 173.846 21.5696C174.598 22.2908 174.974 23.2247 174.974 24.3713C174.974 25.1295 174.717 25.8599 174.204 26.5627C173.69 27.2469 172.966 27.8109 172.031 28.2547C171.096 28.6801 170.024 28.8927 168.814 28.8927C167.677 28.8927 166.586 28.6986 165.541 28.3102C164.496 27.9034 163.607 27.3301 162.874 26.5904L165.376 24.0384C165.798 24.4452 166.339 24.7781 166.999 25.037C167.659 25.2959 168.236 25.4254 168.731 25.4254C169.556 25.4254 169.969 25.1572 169.969 24.6209C169.969 24.3805 169.804 24.1771 169.474 24.0107C169.162 23.8257 168.713 23.6223 168.126 23.4004C166.531 22.7901 165.358 22.1059 164.606 21.3477C163.873 20.5895 163.506 19.6741 163.506 18.6015C163.506 17.8248 163.744 17.1036 164.221 16.4379C164.716 15.7721 165.404 15.2359 166.284 14.829C167.182 14.4222 168.209 14.2188 169.364 14.2188C170.482 14.2188 171.527 14.3944 172.499 14.7458C173.489 15.0972 174.314 15.6057 174.974 16.2714L172.526 18.7402Z" fill="#242934"/>
<path d="M151.632 16.0489C152.146 15.4941 152.741 15.0688 153.42 14.7729C154.116 14.477 154.886 14.3291 155.73 14.3291C157.746 14.3291 159.25 15.0966 160.24 16.6315C160.588 17.1862 160.817 17.7965 160.927 18.4622C161.056 19.1095 161.12 19.9232 161.12 20.9033V28.4761H156.802V20.8478C156.802 19.9601 156.601 19.3037 156.197 18.8783C155.812 18.453 155.207 18.2403 154.382 18.2403C153.594 18.2403 152.989 18.453 152.567 18.8783C152.146 19.3037 151.935 19.8677 151.935 20.5704V28.4761H147.562V14.6342H151.55L151.632 16.0489Z" fill="#242934"/>
<path d="M136.634 28.6987C135.479 28.6987 134.398 28.3936 133.389 27.7833C132.399 27.1731 131.611 26.3224 131.024 25.2313C130.438 24.1403 130.144 22.9105 130.144 21.542C130.144 20.1736 130.438 18.9531 131.024 17.8805C131.611 16.7894 132.399 15.9387 133.389 15.3285C134.398 14.7182 135.479 14.4131 136.634 14.4131C138.394 14.4131 139.751 14.8939 140.704 15.8555L140.814 14.635H144.747V28.4768H140.814L140.704 27.2286C139.751 28.2087 138.394 28.6987 136.634 28.6987ZM137.789 24.8985C138.651 24.8985 139.339 24.5933 139.852 23.9831C140.365 23.3728 140.622 22.5591 140.622 21.542C140.622 20.5434 140.365 19.739 139.852 19.1287C139.339 18.5185 138.651 18.2133 137.789 18.2133C137.001 18.2133 136.323 18.5277 135.754 19.1565C135.186 19.7852 134.902 20.5804 134.902 21.542C134.902 22.5037 135.177 23.3081 135.727 23.9553C136.295 24.5841 136.983 24.8985 137.789 24.8985Z" fill="#242934"/>
<path d="M127.914 28.5872C125.842 28.5872 124.302 28.1341 123.294 27.228C122.285 26.3218 121.781 24.8516 121.781 22.8174V7.67188H126.098V22.4846C126.098 23.4277 126.337 24.075 126.814 24.4263C127.309 24.7592 128.079 24.9256 129.124 24.9256V28.5872H127.914Z" fill="#242934"/>
<path d="M110.853 28.6987C109.698 28.6987 108.616 28.3936 107.608 27.7833C106.618 27.1731 105.83 26.3224 105.243 25.2313C104.656 24.1403 104.363 22.9105 104.363 21.542C104.363 20.1736 104.656 18.9531 105.243 17.8805C105.83 16.7894 106.618 15.9387 107.608 15.3285C108.616 14.7182 109.698 14.4131 110.853 14.4131C112.613 14.4131 113.97 14.8939 114.923 15.8555L115.033 14.635H118.966V28.4768H115.033L114.923 27.2286C113.97 28.2087 112.613 28.6987 110.853 28.6987ZM112.008 24.8985C112.87 24.8985 113.557 24.5933 114.071 23.9831C114.584 23.3728 114.841 22.5591 114.841 21.542C114.841 20.5434 114.584 19.739 114.071 19.1287C113.557 18.5185 112.87 18.2133 112.008 18.2133C111.22 18.2133 110.541 18.5277 109.973 19.1565C109.405 19.7852 109.121 20.5804 109.121 21.542C109.121 22.5037 109.396 23.3081 109.946 23.9553C110.514 24.5841 111.201 24.8985 112.008 24.8985Z" fill="#242934"/>
<path d="M92.5829 15.7716C93.4995 14.8654 94.7645 14.4124 96.3779 14.4124C97.5329 14.4124 98.6054 14.7175 99.5954 15.3278C100.604 15.938 101.401 16.7887 101.988 17.8798C102.575 18.9708 102.868 20.2006 102.868 21.5691C102.868 22.9375 102.575 24.1673 101.988 25.2584C101.401 26.3309 100.604 27.1724 99.5954 27.7826C98.6054 28.3929 97.5329 28.698 96.3779 28.698C94.6179 28.698 93.2612 28.2172 92.3079 27.2556L92.1979 28.4761H88.2654V8.36524H92.5829V15.7716ZM95.2229 18.2126C94.3612 18.2126 93.6737 18.5178 93.1604 19.128C92.647 19.7383 92.3904 20.552 92.3904 21.5691C92.3904 22.5677 92.647 23.3721 93.1604 23.9824C93.6737 24.5926 94.3612 24.8978 95.2229 24.8978C96.0295 24.8978 96.7079 24.5834 97.2579 23.9546C97.8262 23.3259 98.1104 22.5307 98.1104 21.5691C98.1104 20.6074 97.8262 19.8123 97.2579 19.1835C96.7079 18.5363 96.0295 18.2126 95.2229 18.2126Z" fill="#242934"/>
<path d="M83.8761 18.7402C83.4178 18.4074 82.8861 18.13 82.2811 17.9081C81.6761 17.6676 81.1353 17.5474 80.6586 17.5474C80.2736 17.5474 79.9803 17.6122 79.7786 17.7416C79.577 17.8711 79.4761 18.0375 79.4761 18.2409C79.4761 18.4998 79.6228 18.731 79.9161 18.9344C80.2095 19.1193 80.6495 19.3135 81.2361 19.5169C83.1245 20.1457 84.4445 20.8299 85.1961 21.5696C85.9478 22.2908 86.3236 23.2247 86.3236 24.3713C86.3236 25.1295 86.067 25.8599 85.5536 26.5627C85.0403 27.2469 84.3161 27.8109 83.3811 28.2547C82.4461 28.6801 81.3736 28.8927 80.1636 28.8927C79.027 28.8927 77.9361 28.6986 76.8911 28.3102C75.8461 27.9034 74.957 27.3301 74.2236 26.5904L76.7261 24.0384C77.1478 24.4452 77.6886 24.7781 78.3486 25.037C79.0086 25.2959 79.5861 25.4254 80.0811 25.4254C80.9061 25.4254 81.3186 25.1572 81.3186 24.6209C81.3186 24.3805 81.1536 24.1771 80.8236 24.0107C80.512 23.8257 80.0628 23.6223 79.4761 23.4004C77.8811 22.7901 76.7078 22.1059 75.9561 21.3477C75.2228 20.5895 74.8561 19.6741 74.8561 18.6015C74.8561 17.8248 75.0945 17.1036 75.5711 16.4379C76.0661 15.7721 76.7536 15.2359 77.6336 14.829C78.532 14.4222 79.5586 14.2188 80.7136 14.2188C81.832 14.2188 82.877 14.3944 83.8486 14.7458C84.8386 15.0972 85.6636 15.6057 86.3236 16.2714L83.8761 18.7402Z" fill="#33CAAF"/>
<path d="M69.9946 12.7766C69.3162 12.7766 68.7479 12.5455 68.2896 12.0831C67.8312 11.6023 67.6021 11.0198 67.6021 10.3356C67.6021 9.66984 67.8312 9.09656 68.2896 8.61575C68.7479 8.13494 69.3162 7.89453 69.9946 7.89453C70.6729 7.89453 71.2412 8.13494 71.6996 8.61575C72.1762 9.09656 72.4146 9.66984 72.4146 10.3356C72.4146 11.0198 72.1762 11.6023 71.6996 12.0831C71.2412 12.5455 70.6729 12.7766 69.9946 12.7766ZM65.8146 14.6351H72.3596V28.477H67.9871V18.0471H65.8146V14.6351Z" fill="#33CAAF"/>
<path d="M57.7275 28.8089C56.2241 28.8089 54.9133 28.513 53.795 27.9213C52.6766 27.3295 51.815 26.4973 51.21 25.4248C50.6233 24.3337 50.33 23.0669 50.33 21.6245C50.33 20.1451 50.6233 18.8598 51.21 17.7688C51.7966 16.6777 52.6308 15.8363 53.7125 15.2445C54.8125 14.6342 56.1141 14.3291 57.6175 14.3291C59.4691 14.3291 60.9908 14.8007 62.1825 15.7438C63.3925 16.6869 64.19 17.9352 64.575 19.4886C64.7216 20.1358 64.795 20.968 64.795 21.9851L64.7675 22.9005H54.8675C54.9408 23.5847 55.2341 24.158 55.7475 24.6203C56.2791 25.0641 56.9575 25.2861 57.7825 25.2861C59.1575 25.2861 60.1475 24.7498 60.7525 23.6772L64.685 24.9255C64.1166 26.146 63.2275 27.0984 62.0175 27.7826C60.8075 28.4668 59.3775 28.8089 57.7275 28.8089ZM60.23 19.9601C60.1566 19.2204 59.8816 18.6472 59.405 18.2403C58.9466 17.815 58.3416 17.6023 57.59 17.6023C56.8566 17.6023 56.2333 17.8242 55.72 18.2681C55.225 18.6934 54.9683 19.2574 54.95 19.9601H60.23Z" fill="#33CAAF"/>
<path d="M41.21 21.2648H39.56V28.477H35.05V9.05957H41.21C42.42 9.05957 43.4925 9.15203 44.4275 9.33696C45.7842 9.65134 46.8934 10.3078 47.755 11.3064C48.6351 12.2866 49.0751 13.5626 49.0751 15.1344C49.0751 16.3919 48.7451 17.4923 48.0851 18.4354C47.4251 19.3785 46.5726 20.072 45.5276 20.5158L49.7626 28.477H44.95L41.21 21.2648ZM41.6776 17.3536C42.2642 17.3536 42.6584 17.3258 42.86 17.2704C43.3734 17.1594 43.7676 16.9282 44.0425 16.5769C44.3176 16.207 44.4551 15.7355 44.4551 15.1622C44.4551 14.5889 44.29 14.1451 43.9601 13.8307C43.6484 13.4978 43.2542 13.2759 42.7775 13.165C42.4475 13.091 42.09 13.054 41.705 13.054H39.56V17.3536H41.6776Z" fill="#33CAAF"/>
</svg>
